<?xml version="1.0" encoding="utf-8"?>
<!-- Generator: Adobe Illustrator 24.3.0, SVG Export Plug-In . SVG Version: 6.00 Build 0)  -->
<svg version="1.1" id="Layer_1" xmlns="http://www.w3.org/2000/svg" xmlns:xlink="http://www.w3.org/1999/xlink" x="0px" y="0px"
	 viewBox="0 0 64 64" style="enable-background:new 0 0 64 64;" xml:space="preserve">
<style type="text/css">
	.st0{fill:url(#SVGID_1_);}
	.st1{fill:url(#SVGID_2_);}
	.st2{fill:url(#SVGID_3_);}
	.st3{fill:url(#SVGID_4_);}
	.st4{fill:url(#SVGID_5_);}
	.st5{fill:url(#SVGID_6_);}
	.st6{fill:url(#SVGID_7_);}
	.st7{fill:url(#SVGID_8_);}
	.st8{fill:url(#SVGID_9_);}
	.st9{fill:url(#SVGID_10_);}
	.st10{fill:url(#SVGID_11_);}
	.st11{fill:#754D29;}
	.st12{fill:url(#SVGID_12_);}
	.st13{fill:url(#SVGID_13_);}
</style>
<g>
	<linearGradient id="SVGID_1_" gradientUnits="userSpaceOnUse" x1="31.8248" y1="14.826" x2="33.2964" y2="14.826">
		<stop  offset="0" style="stop-color:#EED15C"/>
		<stop  offset="0.7702" style="stop-color:#996514"/>
	</linearGradient>
	<rect x="31.82" y="10.02" class="st0" width="1.47" height="9.62"/>
	<radialGradient id="SVGID_2_" cx="33.2398" cy="15.4486" r="7.4004" gradientUnits="userSpaceOnUse">
		<stop  offset="0" style="stop-color:#EED15C"/>
		<stop  offset="0.7702" style="stop-color:#996514"/>
	</radialGradient>
	<circle class="st1" cx="32.56" cy="19.64" r="4.19"/>
	<linearGradient id="SVGID_3_" gradientUnits="userSpaceOnUse" x1="32.0806" y1="20.4275" x2="32.0806" y2="45.6797">
		<stop  offset="0" style="stop-color:#BE1818"/>
		<stop  offset="0.7263" style="stop-color:#6E150E"/>
	</linearGradient>
	<path class="st2" d="M59.6,35.83c0,8.5-12.32,9.85-27.52,9.85S4.56,44.33,4.56,35.83s12.32-15.4,27.52-15.4S59.6,27.32,59.6,35.83z
		"/>
	<g>
		<g>
			<linearGradient id="SVGID_4_" gradientUnits="userSpaceOnUse" x1="1.7992" y1="39.107" x2="62.362" y2="39.107">
				<stop  offset="0" style="stop-color:#DDB123"/>
				<stop  offset="0.2838" style="stop-color:#8E5714"/>
				<stop  offset="0.4966" style="stop-color:#EED15C"/>
				<stop  offset="0.7702" style="stop-color:#996514"/>
				<stop  offset="1" style="stop-color:#E4C454"/>
			</linearGradient>
			<path class="st3" d="M53.62,34.98c-3.88-0.84-6.71-3.95-6.28-7.28c-0.51,3.32-4.1,5.52-8.04,5.25c-3.94-0.28-7.17-2.97-7.21-6.32
				c-0.04,3.36-3.28,6.04-7.21,6.32c-3.94,0.27-7.53-1.93-8.04-5.25c0.43,3.33-2.4,6.44-6.28,7.28c-3.88,0.83-7.77-0.84-8.75-4.05
				c2,6.89,4,13.77,6,20.66c15.86-4.61,32.7-4.61,48.56,0c2-6.89,4-13.77,6-20.66C61.38,34.14,57.49,35.81,53.62,34.98z"/>
			<linearGradient id="SVGID_5_" gradientUnits="userSpaceOnUse" x1="1.7992" y1="39.107" x2="62.362" y2="39.107">
				<stop  offset="0" style="stop-color:#DDB123"/>
				<stop  offset="0.2838" style="stop-color:#8E5714"/>
				<stop  offset="0.4966" style="stop-color:#EED15C"/>
				<stop  offset="0.7702" style="stop-color:#996514"/>
				<stop  offset="1" style="stop-color:#E4C454"/>
			</linearGradient>
			<path class="st4" d="M53.62,34.98c-3.88-0.84-6.71-3.95-6.28-7.28c-0.51,3.32-4.1,5.52-8.04,5.25c-3.94-0.28-7.17-2.97-7.21-6.32
				c-0.04,3.36-3.28,6.04-7.21,6.32c-3.94,0.27-7.53-1.93-8.04-5.25c0.43,3.33-2.4,6.44-6.28,7.28c-3.88,0.83-7.77-0.84-8.75-4.05
				c2,6.89,4,13.77,6,20.66c15.86-4.61,32.7-4.61,48.56,0c2-6.89,4-13.77,6-20.66C61.38,34.14,57.49,35.81,53.62,34.98z"/>
		</g>
	</g>
	<radialGradient id="SVGID_6_" cx="32.0806" cy="25.3765" r="3.0857" gradientUnits="userSpaceOnUse">
		<stop  offset="0" style="stop-color:#EED15C"/>
		<stop  offset="0.7702" style="stop-color:#996514"/>
	</radialGradient>
	<circle class="st5" cx="32.08" cy="27.08" r="1.73"/>
	<radialGradient id="SVGID_7_" cx="1.7992" cy="29.6517" r="3.0857" gradientUnits="userSpaceOnUse">
		<stop  offset="0" style="stop-color:#EED15C"/>
		<stop  offset="0.7702" style="stop-color:#996514"/>
	</radialGradient>
	<circle class="st6" cx="1.8" cy="31.36" r="1.73"/>
	<radialGradient id="SVGID_8_" cx="17.1665" cy="26.4195" r="3.0857" gradientUnits="userSpaceOnUse">
		<stop  offset="0" style="stop-color:#EED15C"/>
		<stop  offset="0.7702" style="stop-color:#996514"/>
	</radialGradient>
	<circle class="st7" cx="17.17" cy="28.13" r="1.73"/>
	<radialGradient id="SVGID_9_" cx="62.2748" cy="29.6517" r="3.0857" gradientUnits="userSpaceOnUse">
		<stop  offset="0" style="stop-color:#EED15C"/>
		<stop  offset="0.7702" style="stop-color:#996514"/>
	</radialGradient>
	<circle class="st8" cx="62.27" cy="31.36" r="1.73"/>
	<radialGradient id="SVGID_10_" cx="47.2491" cy="26.4195" r="3.0857" gradientUnits="userSpaceOnUse">
		<stop  offset="0" style="stop-color:#EED15C"/>
		<stop  offset="0.7702" style="stop-color:#996514"/>
	</radialGradient>
	<circle class="st9" cx="47.25" cy="28.13" r="1.73"/>
	<linearGradient id="SVGID_11_" gradientUnits="userSpaceOnUse" x1="29.127" y1="9.1803" x2="35.9943" y2="9.1803">
		<stop  offset="0" style="stop-color:#EED15C"/>
		<stop  offset="0.7702" style="stop-color:#996514"/>
	</linearGradient>
	<path class="st10" d="M35.73,10.35c-0.79,1.1-1.84,0-1.84,0c1.19-0.28,1.3-1.87,0.31-2.49c-0.99-0.62-1.64-2.24-1.64-2.24
		s-0.65,1.61-1.64,2.24c-0.99,0.62-0.88,2.21,0.31,2.49c0,0-1.05,1.1-1.84,0c0,0-0.59,0.65,0,2.38c0,0,1.39-1.53,3.17-0.23
		c1.78-1.3,3.17,0.23,3.17,0.23C36.32,11.01,35.73,10.35,35.73,10.35z"/>
	<g>
		<path class="st11" d="M32.11,37.4c-10.88,0-21.03,1.43-27.32,3.84c0.08,0.29,0.17,0.58,0.25,0.87c6.18-2.39,16.25-3.81,27.07-3.81
			c10.77,0,20.82,1.41,27.01,3.78c0.08-0.29,0.17-0.58,0.25-0.87C53.08,38.82,42.95,37.4,32.11,37.4z M6.57,47.34
			c0.08,0.27,0.16,0.54,0.24,0.82c5.79-2.23,15.2-3.55,25.31-3.55c10.07,0,19.46,1.32,25.25,3.53c0.08-0.27,0.16-0.54,0.24-0.82
			c-5.89-2.23-15.36-3.56-25.49-3.56C21.95,43.75,12.45,45.09,6.57,47.34z"/>
	</g>
	<linearGradient id="SVGID_12_" gradientUnits="userSpaceOnUse" x1="4.1044" y1="39.0829" x2="60.0567" y2="39.0829">
		<stop  offset="0" style="stop-color:#DDB123"/>
		<stop  offset="0.1045" style="stop-color:#996314"/>
		<stop  offset="0.3622" style="stop-color:#EED15C"/>
		<stop  offset="0.4724" style="stop-color:#A67417"/>
		<stop  offset="0.7612" style="stop-color:#E4C454"/>
		<stop  offset="1" style="stop-color:#8E5714"/>
	</linearGradient>
	<path class="st12" d="M4.56,41.52c-0.18,0-0.35-0.11-0.42-0.28c-0.09-0.23,0.02-0.5,0.25-0.59c6.25-2.5,16.61-4,27.72-4
		c11.06,0,21.4,1.48,27.66,3.97c0.23,0.09,0.35,0.36,0.25,0.59c-0.09,0.23-0.36,0.35-0.59,0.25c-6.15-2.45-16.37-3.91-27.32-3.91
		c-11,0-21.24,1.47-27.39,3.93C4.67,41.51,4.61,41.52,4.56,41.52z"/>
	<linearGradient id="SVGID_13_" gradientUnits="userSpaceOnUse" x1="5.8958" y1="45.3279" x2="58.2654" y2="45.3279">
		<stop  offset="0" style="stop-color:#DDB123"/>
		<stop  offset="0.1045" style="stop-color:#996314"/>
		<stop  offset="0.3622" style="stop-color:#EED15C"/>
		<stop  offset="0.4724" style="stop-color:#A67417"/>
		<stop  offset="0.7612" style="stop-color:#E4C454"/>
		<stop  offset="1" style="stop-color:#8E5714"/>
	</linearGradient>
	<path class="st13" d="M6.32,47.61c-0.17,0-0.33-0.1-0.39-0.27c-0.09-0.22,0.02-0.46,0.24-0.55c5.85-2.34,15.55-3.74,25.95-3.74
		c10.36,0,20.03,1.39,25.89,3.72c0.22,0.09,0.32,0.33,0.24,0.55c-0.09,0.22-0.33,0.32-0.55,0.24c-5.76-2.29-15.32-3.66-25.57-3.66
		c-10.3,0-19.88,1.38-25.63,3.68C6.43,47.6,6.37,47.61,6.32,47.61z"/>
</g>
</svg>
