<?xml version="1.0" encoding="utf-8"?>
<!-- Generator: Adobe Illustrator 24.3.0, SVG Export Plug-In . SVG Version: 6.00 Build 0)  -->
<svg version="1.1" id="Layer_1" xmlns="http://www.w3.org/2000/svg" xmlns:xlink="http://www.w3.org/1999/xlink" x="0px" y="0px"
	 viewBox="0 0 64 64" style="enable-background:new 0 0 64 64;" xml:space="preserve">
<style type="text/css">
	.st0{fill:#FFFFFF;}
	.st1{fill:#020203;}
	.st2{fill:#87BD24;}
	.st3{fill:#FBBC39;}
	.st4{fill:#FFD523;}
	.st5{clip-path:url(#SVGID_2_);fill:#F1AA59;}
	.st6{clip-path:url(#SVGID_2_);fill:#F1AA58;}
	.st7{clip-path:url(#SVGID_2_);fill:#F1AB58;}
	.st8{clip-path:url(#SVGID_2_);fill:#F1AC58;}
	.st9{clip-path:url(#SVGID_2_);fill:#F2AD58;}
	.st10{clip-path:url(#SVGID_2_);fill:#F2AE58;}
	.st11{clip-path:url(#SVGID_2_);fill:#F3AF57;}
	.st12{clip-path:url(#SVGID_2_);fill:#F3B057;}
	.st13{clip-path:url(#SVGID_2_);fill:#F3B157;}
	.st14{clip-path:url(#SVGID_2_);fill:#F4B257;}
	.st15{clip-path:url(#SVGID_2_);fill:#F4B356;}
	.st16{clip-path:url(#SVGID_2_);fill:#F4B456;}
	.st17{clip-path:url(#SVGID_2_);fill:#F5B556;}
	.st18{clip-path:url(#SVGID_2_);fill:#F5B656;}
	.st19{clip-path:url(#SVGID_2_);fill:#F5B755;}
	.st20{clip-path:url(#SVGID_2_);fill:#F6B855;}
	.st21{clip-path:url(#SVGID_2_);fill:#F6B955;}
	.st22{clip-path:url(#SVGID_2_);fill:#F7BA54;}
	.st23{clip-path:url(#SVGID_2_);fill:#F7BB54;}
	.st24{clip-path:url(#SVGID_2_);fill:#F7BC53;}
	.st25{clip-path:url(#SVGID_2_);fill:#F8BD53;}
	.st26{clip-path:url(#SVGID_2_);fill:#F8BE53;}
	.st27{clip-path:url(#SVGID_2_);fill:#F8BF53;}
	.st28{clip-path:url(#SVGID_2_);fill:#F8BF52;}
	.st29{clip-path:url(#SVGID_2_);fill:#F9C052;}
	.st30{clip-path:url(#SVGID_2_);fill:#F9C152;}
	.st31{clip-path:url(#SVGID_2_);fill:#F9C151;}
	.st32{clip-path:url(#SVGID_2_);fill:#FAC251;}
	.st33{clip-path:url(#SVGID_2_);fill:#FAC351;}
	.st34{clip-path:url(#SVGID_2_);fill:#FAC451;}
	.st35{clip-path:url(#SVGID_2_);fill:#FAC450;}
	.st36{clip-path:url(#SVGID_2_);fill:#FBC550;}
	.st37{clip-path:url(#SVGID_2_);fill:#FBC650;}
	.st38{clip-path:url(#SVGID_2_);fill:#FBC74F;}
	.st39{clip-path:url(#SVGID_2_);fill:#FCC84F;}
	.st40{clip-path:url(#SVGID_2_);fill:#FCC94E;}
	.st41{clip-path:url(#SVGID_2_);fill:#FCCA4E;}
	.st42{clip-path:url(#SVGID_2_);fill:#FCCA4D;}
	.st43{clip-path:url(#SVGID_2_);fill:#FDCB4D;}
	.st44{clip-path:url(#SVGID_2_);fill:#FDCC4D;}
	.st45{clip-path:url(#SVGID_2_);fill:#FDCD4C;}
	.st46{clip-path:url(#SVGID_2_);fill:#FECD4C;}
	.st47{clip-path:url(#SVGID_2_);fill:#FECE4B;}
	.st48{clip-path:url(#SVGID_2_);fill:#FECF4B;}
	.st49{clip-path:url(#SVGID_2_);fill:#FFCF4B;}
	.st50{clip-path:url(#SVGID_2_);fill:#FFD04A;}
	.st51{clip-path:url(#SVGID_2_);fill:#FFD14A;}
	.st52{fill:#FAC44B;}
	.st53{fill:#CDCCCC;}
	.st54{fill:#FFD469;}
	.st55{fill:#F4B353;}
</style>
<g id="layer1" transform="translate(-333.12983,-288.31523)">
	<g id="g15745" transform="matrix(3.7795277,0,0,3.7795277,7058.3176,3939.2809)">
		<g id="path9-1-4">
			<path class="st0" d="M-1767.96-952.79c-10.34-0.5-8.62-3-8.62-3s-1.72,1.12-2.33,1.66c-0.61,0.54,1.42,1.32,2.59,1.71
				c1.17,0.39,3.42,1.28,4.74,0.91C-1769.4-952.12-1767.96-952.79-1767.96-952.79L-1767.96-952.79z"/>
			<path class="st1" d="M-1772.58-951.08c-1.12-0.07-2.42-0.52-3.36-0.84c-0.18-0.06-0.34-0.12-0.49-0.17
				c-2.77-0.92-2.89-1.49-2.93-1.7c-0.05-0.22,0.03-0.43,0.22-0.6c0.62-0.55,2.3-1.65,2.37-1.69c0.14-0.09,0.32-0.07,0.44,0.05
				c0.12,0.12,0.13,0.3,0.04,0.44c-0.01,0.01-0.11,0.2,0.02,0.46c0.26,0.49,1.59,1.66,8.33,1.99l-0.02,0.35l0.14,0.32
				c-0.15,0.07-1.56,0.71-3.67,1.3C-1771.81-951.08-1772.18-951.06-1772.58-951.08z M-1778.65-953.89c0.14,0.18,0.78,0.59,2.44,1.14
				c0.15,0.05,0.32,0.11,0.5,0.17c1.19,0.41,2.99,1.03,4.03,0.74c0.84-0.24,1.57-0.48,2.15-0.69c-4.31-0.33-6.79-1.1-7.38-2.3
				c-0.04-0.09-0.07-0.17-0.09-0.25C-1777.54-954.73-1778.28-954.21-1778.65-953.89z"/>
		</g>
		<g id="path13-3-8">
			<path class="st0" d="M-1777.38-955.25c0.84-0.56,0.75-1.08,0.75-1.08l13.19,0.79c0,0-0.15,0.51,0.65,1.17
				c-0.07,1.09-3.39,1.78-7.42,1.54C-1774.23-953.07-1777.45-954.15-1777.38-955.25L-1777.38-955.25z"/>
			<path class="st1" d="M-1770.22-952.48c-3.8-0.23-7.6-1.26-7.51-2.79c0.01-0.11,0.06-0.21,0.15-0.27c0.56-0.37,0.6-0.69,0.6-0.74
				c-0.03-0.1,0-0.2,0.07-0.29c0.07-0.09,0.18-0.12,0.3-0.11l13.19,0.79c0.11,0.01,0.22,0.05,0.28,0.15
				c0.06,0.09,0.07,0.19,0.03,0.29c0,0.06,0,0.37,0.54,0.81c0.09,0.07,0.13,0.18,0.13,0.29
				C-1762.53-952.82-1766.43-952.25-1770.22-952.48z M-1777-955.09c0.29,0.61,2.6,1.66,6.82,1.91c4.22,0.25,6.63-0.51,7-1.08
				c-0.39-0.37-0.54-0.7-0.59-0.95l-12.56-0.75C-1776.41-955.72-1776.59-955.41-1777-955.09z M-1763.1-955.45L-1763.1-955.45
				L-1763.1-955.45z"/>
		</g>
		<g id="path19-3-0">
			<path class="st0" d="M-1764.01-959.49c0.62,1.69,0.59,2.94,0.56,4.05c-0.02,0.27-0.25,0.53-0.72,0.76
				c-1.66,0.81-5.64,0.95-8.88,0.32c-2.32-0.45-3.64-1.18-3.6-1.9c0.08-0.85,0.13-1.37,0.34-2.18c0.25-0.93,0.58-1.57,0.75-1.87
				c0.7-1.23,1.54-2.04,2.73-2.64c1.76-0.88,4.67-1.02,6.9,0.76C-1764.7-961.2-1764.15-959.87-1764.01-959.49L-1764.01-959.49z"/>
		</g>
		<g id="path23-1-6">
			<path class="st2" d="M-1764.01-959.49c0.62,1.69,0.59,2.94,0.56,4.05c-0.02,0.27-0.25,0.53-0.72,0.76
				c-1.66,0.81-5.64,0.95-8.88,0.32c-2.32-0.45-3.64-1.18-3.6-1.9c0.08-0.85,0.13-1.37,0.34-2.18c0.25-0.93,0.58-1.57,0.75-1.87
				c0.7-1.23,1.54-2.04,2.73-2.64c1.76-0.88,4.67-1.02,6.9,0.76C-1764.7-961.2-1764.15-959.87-1764.01-959.49L-1764.01-959.49z"/>
			<path class="st1" d="M-1770.2-953.65c-0.98-0.06-1.98-0.18-2.93-0.36c-1.16-0.23-2.12-0.53-2.78-0.88
				c-0.76-0.4-1.13-0.87-1.1-1.37c0.08-0.88,0.13-1.41,0.36-2.25c0.26-0.97,0.6-1.64,0.78-1.95c0.74-1.29,1.63-2.14,2.88-2.78
				c1.85-0.93,4.92-1.08,7.27,0.8c1.3,1.04,1.89,2.44,2.04,2.84h0c0.65,1.76,0.61,3.04,0.58,4.18c-0.02,0.43-0.33,0.78-0.92,1.07
				C-1765.28-953.75-1767.69-953.5-1770.2-953.65z M-1769.6-963.22c-1.15-0.07-2.25,0.17-3.07,0.59c-1.12,0.57-1.92,1.34-2.59,2.5
				c-0.16,0.28-0.47,0.89-0.71,1.79c-0.21,0.78-0.26,1.28-0.33,2.12c-0.02,0.34,0.85,1.04,3.32,1.52c3.18,0.62,7.06,0.49,8.66-0.29
				c0.38-0.19,0.52-0.37,0.53-0.47c0.03-1.06,0.07-2.28-0.53-3.91c0,0,0,0,0,0c-0.13-0.36-0.66-1.61-1.82-2.54
				C-1767.21-962.76-1768.44-963.15-1769.6-963.22z"/>
		</g>
		<g id="path27-6-0">
			<path class="st3" d="M-1767.91-952.82c-10.34-0.5-8.62-3-8.62-3s-1.72,1.12-2.33,1.66c-0.61,0.54,1.42,1.32,2.59,1.71
				c1.17,0.39,3.42,1.28,4.74,0.91C-1769.34-952.15-1767.91-952.82-1767.91-952.82L-1767.91-952.82z"/>
			<path class="st3" d="M-1772.51-951.34c-1.09-0.07-2.37-0.51-3.3-0.83c-0.18-0.06-0.34-0.12-0.49-0.17
				c-2.18-0.72-2.71-1.23-2.78-1.53c-0.02-0.1-0.01-0.24,0.14-0.38c0.61-0.54,2.27-1.62,2.34-1.67c0.05-0.03,0.11-0.02,0.15,0.02
				c0.04,0.04,0.04,0.1,0.01,0.15c-0.01,0.01-0.19,0.3,0,0.68c0.33,0.66,1.88,1.81,8.53,2.13c0,0,0,0,0,0c0.05,0,0.1,0.04,0.11,0.09
				c0.01,0.05-0.02,0.11-0.07,0.13l-0.05-0.11l0.05,0.11c-0.06,0.03-1.5,0.68-3.63,1.29
				C-1771.79-951.34-1772.14-951.32-1772.51-951.34z M-1776.75-955.53c-0.51,0.34-1.59,1.07-2.03,1.46
				c-0.08,0.07-0.08,0.12-0.07,0.15c0.07,0.32,1.07,0.84,2.62,1.35c0.15,0.05,0.31,0.11,0.49,0.17c1.22,0.42,3.06,1.06,4.18,0.74
				c1.44-0.41,2.56-0.84,3.15-1.08c-6.05-0.34-7.82-1.4-8.23-2.24C-1776.75-955.19-1776.76-955.38-1776.75-955.53z"/>
		</g>
		<g id="path31-3-3">
			<path class="st3" d="M-1777.37-955.19c0.84-0.56,0.8-1.16,0.8-1.16l13.19,0.79c0,0-0.15,0.51,0.65,1.17
				c-0.07,1.09-3.39,1.78-7.42,1.54c-4.03-0.24-7.24-1.32-7.18-2.42L-1777.37-955.19z"/>
			<path class="st3" d="M-1770.15-952.74c-3.46-0.21-7-1.13-7.27-2.35c-0.01,0-0.01-0.01-0.02-0.02c-0.04-0.04-0.05-0.09-0.03-0.14
				l0.04-0.08c0.03-0.05,0.08-0.07,0.13-0.06c0.62-0.48,0.61-0.94,0.61-0.96c0-0.03,0.01-0.07,0.03-0.09
				c0.02-0.02,0.06-0.04,0.09-0.03l13.19,0.79c0.04,0,0.07,0.02,0.09,0.05c0.02,0.03,0.03,0.07,0.02,0.1c0,0-0.11,0.45,0.61,1.04
				c0.03,0.02,0.04,0.06,0.04,0.1C-1762.69-953.08-1766.51-952.53-1770.15-952.74z M-1777.2-955.17c0.15,0.88,2.93,1.94,7.06,2.19
				c4.21,0.25,7.12-0.5,7.29-1.37c-0.57-0.48-0.65-0.9-0.66-1.11l-12.96-0.78C-1776.5-956.02-1776.63-955.59-1777.2-955.17z"/>
		</g>
		<g id="path37-0-6">
			<path class="st4" d="M-1763.95-959.52c0.62,1.69,0.59,2.94,0.56,4.05c-0.02,0.27-0.25,0.53-0.72,0.76
				c-1.66,0.81-5.64,0.96-8.88,0.32c-2.32-0.45-3.64-1.18-3.6-1.9c0.08-0.85,0.13-1.37,0.34-2.17c0.25-0.93,0.58-1.57,0.75-1.87
				c0.7-1.22,1.54-2.04,2.73-2.64c1.76-0.88,4.67-1.02,6.9,0.76C-1764.65-961.23-1764.09-959.9-1763.95-959.52L-1763.95-959.52z"/>
		</g>
		<g id="path41-6-5">
			<path class="st1" d="M-1770.17-953.92c-0.97-0.06-1.94-0.18-2.85-0.35c-2.36-0.46-3.74-1.22-3.69-2.02
				c0.08-0.86,0.13-1.38,0.35-2.2c0.25-0.94,0.58-1.6,0.76-1.9c0.71-1.25,1.57-2.07,2.78-2.68c1.79-0.9,4.75-1.04,7.02,0.77
				c1.25,1,1.82,2.35,1.96,2.74l0,0c0.63,1.71,0.59,2.98,0.56,4.09c-0.02,0.33-0.28,0.62-0.79,0.87
				C-1765.27-954.02-1767.69-953.77-1770.17-953.92z M-1769.53-963.48c-1.2-0.07-2.33,0.18-3.19,0.61
				c-1.17,0.59-1.99,1.39-2.68,2.59c-0.17,0.29-0.49,0.93-0.74,1.84c-0.21,0.8-0.26,1.31-0.34,2.15c-0.04,0.65,1.34,1.35,3.5,1.77
				c3.22,0.63,7.17,0.49,8.81-0.31c0.42-0.2,0.65-0.43,0.66-0.67c0.03-1.09,0.07-2.33-0.55-4l0,0c-0.14-0.37-0.68-1.67-1.89-2.64
				C-1767.05-963-1768.32-963.4-1769.53-963.48z"/>
		</g>
		<g id="path52-0-7">
			<g>
				<defs>
					<path id="SVGID_1_" d="M-1763.95-959.52c0.62,1.69,0.59,2.94,0.56,4.05c-0.02,0.27-0.25,0.53-0.72,0.76
						c-1.66,0.81-5.64,0.96-8.88,0.32c-2.32-0.45-3.64-1.18-3.6-1.9c0.08-0.85,0.13-1.37,0.34-2.17c0.25-0.93,0.58-1.57,0.75-1.87
						c0.7-1.22,1.54-2.04,2.73-2.64c1.76-0.88,4.67-1.02,6.9,0.76C-1764.65-961.23-1764.09-959.9-1763.95-959.52L-1763.95-959.52z"
						/>
				</defs>
				<clipPath id="SVGID_2_">
					<use xlink:href="#SVGID_1_"  style="overflow:visible;"/>
				</clipPath>
				
				<path class="st5" d="M-1762.99-960.14l0.22-3.66l-13.45-0.81l-0.63,10.54l12.56,0.75l-0.03,0.43c0.25-0.27,0.49-0.55,0.71-0.85
					c0.45-0.59,0.84-1.22,1.18-1.89l-0.84-0.05L-1762.99-960.14z"/>
				<path class="st6" d="M-1762.99-960.14l0.22-3.66l-13.45-0.81l-0.63,10.54l12.48,0.75l-0.02,0.36c0.25-0.27,0.49-0.55,0.71-0.84
					c0.45-0.58,0.84-1.21,1.17-1.87l-0.74-0.04L-1762.99-960.14z"/>
				<path class="st7" d="M-1762.99-960.14l0.22-3.66l-13.45-0.81l-0.63,10.54l12.4,0.74l-0.02,0.29c0.25-0.26,0.48-0.54,0.7-0.83
					c0.44-0.58,0.83-1.2,1.16-1.85l-0.64-0.04L-1762.99-960.14z"/>
				<path class="st8" d="M-1762.99-960.14l0.22-3.66l-13.45-0.81l-0.63,10.54l12.31,0.74l-0.01,0.22c0.24-0.26,0.48-0.54,0.69-0.82
					c0.44-0.57,0.82-1.18,1.14-1.84l-0.54-0.03L-1762.99-960.14z"/>
				<path class="st9" d="M-1762.99-960.14l0.22-3.66l-13.45-0.81l-0.63,10.54l12.23,0.73l-0.01,0.15c0.24-0.26,0.47-0.53,0.69-0.81
					c0.43-0.56,0.81-1.17,1.13-1.82l-0.44-0.03L-1762.99-960.14z"/>
				<path class="st10" d="M-1762.99-960.14l0.22-3.66l-13.45-0.81l-0.63,10.54l12.14,0.73l0,0.08c0.24-0.26,0.47-0.53,0.68-0.81
					c0.43-0.56,0.81-1.16,1.12-1.8l-0.34-0.02L-1762.99-960.14z"/>
				<path class="st10" d="M-1762.99-960.14l0.22-3.66l-13.45-0.81l-0.63,10.54l11.36,0.68l-0.05,0.78c1.04-0.92,1.9-2.04,2.53-3.31
					l-0.24-0.01L-1762.99-960.14z"/>
				<path class="st11" d="M-1762.99-960.14l0.22-3.66l-13.45-0.81l-0.63,10.54l11.28,0.68l-0.04,0.71c1.03-0.91,1.89-2.02,2.51-3.27
					l-0.14-0.01L-1762.99-960.14z"/>
				<path class="st12" d="M-1762.99-960.14l0.22-3.66l-13.45-0.81l-0.63,10.54l11.21,0.67l-0.04,0.63c1.02-0.9,1.87-2,2.48-3.24
					l-0.04,0L-1762.99-960.14z"/>
				<path class="st13" d="M-1762.23-960.09c0.09-1.45-0.12-2.85-0.58-4.14l-0.03,0.44l-13.39-0.8l-0.63,10.54l11.13,0.67l-0.03,0.55
					C-1763.74-954.63-1762.4-957.19-1762.23-960.09z"/>
				<path class="st13" d="M-1762.34-960.1c0.09-1.44-0.12-2.82-0.57-4.1l-0.02,0.39l-13.29-0.8l-0.63,10.54l11.05,0.66l-0.03,0.48
					C-1763.83-954.69-1762.51-957.22-1762.34-960.1z"/>
				<path class="st14" d="M-1762.45-960.1c0.09-1.42-0.12-2.79-0.57-4.06l-0.02,0.35l-13.19-0.79l-0.63,10.54l10.98,0.66l-0.02,0.4
					C-1763.92-954.75-1762.62-957.26-1762.45-960.1z"/>
				<path class="st15" d="M-1762.55-960.11c0.08-1.41-0.12-2.77-0.56-4.02l-0.02,0.31l-13.09-0.79l-0.63,10.54l10.9,0.65l-0.02,0.32
					C-1764.02-954.82-1762.72-957.3-1762.55-960.11z"/>
				<path class="st16" d="M-1762.66-960.12c0.08-1.39-0.12-2.74-0.56-3.97l-0.02,0.27l-12.99-0.78l-0.63,10.54l10.82,0.65
					l-0.01,0.25C-1764.11-954.88-1762.83-957.33-1762.66-960.12z"/>
				<path class="st17" d="M-1762.77-960.12c0.08-1.38-0.12-2.71-0.55-3.93l-0.01,0.23l-12.89-0.77l-0.63,10.54l10.75,0.65
					l-0.01,0.17C-1764.2-954.94-1762.94-957.37-1762.77-960.12z"/>
				<path class="st17" d="M-1762.88-960.13c0.08-1.36-0.12-2.68-0.54-3.89l-0.01,0.18l-12.79-0.77l-0.63,10.54l10.67,0.64
					l-0.01,0.09C-1764.3-955-1763.04-957.4-1762.88-960.13z"/>
				<path class="st18" d="M-1762.99-960.14c0.08-1.35-0.12-2.65-0.54-3.85l-0.01,0.14l-12.69-0.76l-0.63,10.54l10.59,0.64l0,0.02
					C-1764.39-955.07-1763.15-957.44-1762.99-960.14z"/>
				<path class="st19" d="M-1763.1-960.14c0.08-1.33-0.11-2.62-0.53-3.8l-0.01,0.1l-12.59-0.76l-0.63,10.54l9.83,0.59l-0.03,0.56
					c0.25-0.18,0.49-0.38,0.72-0.58C-1764.48-955.13-1763.26-957.48-1763.1-960.14z"/>
				<path class="st20" d="M-1763.2-960.15c0.08-1.32-0.11-2.59-0.53-3.76l0,0.06l-12.49-0.75l-0.63,10.54l9.76,0.59l-0.03,0.48
					c0.25-0.18,0.49-0.37,0.71-0.58C-1764.57-955.19-1763.36-957.51-1763.2-960.15z"/>
				<path class="st20" d="M-1763.31-960.16c0.08-1.3-0.11-2.56-0.52-3.72l0,0.01l-12.39-0.74l-0.63,10.54l9.69,0.58l-0.02,0.4
					c0.24-0.18,0.48-0.37,0.71-0.57C-1764.67-955.26-1763.47-957.55-1763.31-960.16z"/>
				<path class="st21" d="M-1763.42-960.16c0.08-1.29-0.11-2.53-0.52-3.67c-0.1-0.29-0.22-0.57-0.34-0.84l-0.05,0.79l-11.89-0.71
					l-0.63,10.54l9.63,0.58l-0.02,0.31c0.24-0.18,0.47-0.36,0.7-0.56C-1764.76-955.32-1763.58-957.59-1763.42-960.16z"/>
				<path class="st22" d="M-1763.53-960.17c0.08-1.27-0.11-2.5-0.51-3.63c-0.1-0.28-0.21-0.56-0.34-0.83l-0.04,0.74l-11.8-0.71
					l-0.63,10.54l8.85,0.53l-0.05,0.76c0.51-0.3,0.99-0.65,1.43-1.04C-1764.85-955.38-1763.68-957.62-1763.53-960.17z"/>
				<path class="st23" d="M-1763.64-960.18c0.08-1.26-0.11-2.47-0.5-3.59c-0.1-0.28-0.21-0.55-0.34-0.82l-0.04,0.68l-11.7-0.7
					l-0.63,10.54l8.79,0.53l-0.04,0.67c0.5-0.3,0.98-0.64,1.41-1.03C-1764.95-955.44-1763.79-957.66-1763.64-960.18z"/>
				<path class="st23" d="M-1763.75-960.18c0.07-1.24-0.11-2.44-0.5-3.55c-0.1-0.28-0.21-0.55-0.33-0.81l-0.04,0.63l-11.61-0.7
					l-0.63,10.54l8.73,0.52l-0.03,0.58c0.5-0.29,0.97-0.64,1.4-1.02C-1765.04-955.51-1763.9-957.7-1763.75-960.18z"/>
				<path class="st24" d="M-1763.86-960.19c0.07-1.23-0.1-2.41-0.49-3.5c-0.1-0.27-0.21-0.54-0.33-0.8l-0.03,0.58l-11.51-0.69
					l-0.63,10.54l8.66,0.52l-0.03,0.49c0.49-0.29,0.95-0.63,1.38-1.01C-1765.13-955.57-1764-957.73-1763.86-960.19z"/>
				<path class="st25" d="M-1763.96-960.2c0.07-1.21-0.1-2.38-0.48-3.46c-0.1-0.27-0.2-0.53-0.32-0.79l-0.03,0.53l-11.42-0.69
					l-0.63,10.54l8.6,0.52l-0.02,0.4c0.49-0.29,0.94-0.62,1.36-0.99C-1765.22-955.63-1764.11-957.77-1763.96-960.2z"/>
				<path class="st26" d="M-1764.07-960.2c0.07-1.2-0.1-2.35-0.48-3.42c-0.09-0.27-0.2-0.53-0.32-0.78l-0.03,0.48l-11.32-0.68
					l-0.63,10.54l8.54,0.51l-0.02,0.31c0.48-0.28,0.93-0.61,1.35-0.98C-1765.32-955.7-1764.22-957.81-1764.07-960.2z"/>
				<path class="st27" d="M-1764.18-960.21c0.07-1.18-0.1-2.32-0.47-3.38c-0.09-0.26-0.2-0.52-0.32-0.77l-0.03,0.43l-11.23-0.67
					l-0.63,10.54l8.48,0.51l-0.01,0.22c0.47-0.28,0.92-0.61,1.33-0.97C-1765.41-955.76-1764.32-957.84-1764.18-960.21z"/>
				<path class="st28" d="M-1764.29-960.21c0.07-1.17-0.1-2.29-0.47-3.33c-0.09-0.26-0.2-0.51-0.31-0.76l-0.02,0.37l-11.13-0.67
					l-0.63,10.54l8.42,0.51l-0.01,0.13c0.47-0.28,0.91-0.6,1.31-0.96C-1765.5-955.82-1764.43-957.88-1764.29-960.21z"/>
				<path class="st29" d="M-1764.4-960.22c0.07-1.15-0.1-2.27-0.46-3.29c-0.09-0.26-0.19-0.51-0.31-0.75l-0.02,0.32l-11.04-0.66
					l-0.63,10.54l6.94,0.42l-0.05,0.81c1.02-0.36,1.96-0.92,2.76-1.63C-1765.6-955.88-1764.54-957.92-1764.4-960.22z"/>
				<path class="st30" d="M-1764.51-960.23c0.07-1.14-0.1-2.24-0.46-3.25c-0.09-0.25-0.19-0.5-0.3-0.74l-0.02,0.27l-10.94-0.66
					l-0.63,10.54l6.9,0.41l-0.04,0.71c1.01-0.36,1.94-0.91,2.73-1.61C-1765.69-955.95-1764.64-957.95-1764.51-960.23z"/>
				<path class="st31" d="M-1764.61-960.23c0.07-1.12-0.1-2.21-0.45-3.2c-0.09-0.25-0.19-0.49-0.3-0.73l-0.01,0.22l-10.84-0.65
					l-0.63,10.54l6.86,0.41l-0.04,0.61c1-0.35,1.91-0.9,2.69-1.59C-1765.78-956.01-1764.75-957.99-1764.61-960.23z"/>
				<path class="st32" d="M-1764.72-960.24c0.07-1.11-0.09-2.18-0.44-3.16c-0.17-0.49-0.4-0.96-0.66-1.41l-0.05,0.83l-10.35-0.62
					l-0.62,10.31l-0.79-0.05c0.41,0.31,0.85,0.59,1.32,0.82l0.03-0.51l6.25,0.38l-0.03,0.51c0.98-0.35,1.88-0.88,2.65-1.57
					C-1765.87-956.07-1764.86-958.02-1764.72-960.24z"/>
				<path class="st33" d="M-1764.83-960.25c0.07-1.09-0.09-2.15-0.44-3.12c-0.17-0.49-0.39-0.95-0.65-1.39l-0.05,0.77l-10.26-0.62
					l-0.61,10.22l-0.73-0.04c0.4,0.31,0.84,0.58,1.3,0.81l0.02-0.41l6.16,0.37l-0.02,0.41c0.97-0.34,1.86-0.87,2.62-1.55
					C-1765.97-956.14-1764.96-958.06-1764.83-960.25z"/>
				<path class="st34" d="M-1764.94-960.25c0.06-1.08-0.09-2.12-0.43-3.08c-0.17-0.48-0.38-0.94-0.64-1.37l-0.04,0.71l-10.17-0.61
					l-0.61,10.13l-0.67-0.04c0.4,0.31,0.83,0.57,1.28,0.8l0.02-0.31l6.08,0.36l-0.02,0.31c0.96-0.34,1.83-0.86,2.58-1.52
					C-1766.06-956.2-1765.07-958.1-1764.94-960.25z"/>
				<path class="st35" d="M-1765.05-960.26c0.06-1.06-0.09-2.09-0.43-3.03c-0.17-0.47-0.38-0.92-0.63-1.35l-0.04,0.65l-10.08-0.61
					l-0.6,10.04l-0.61-0.04c0.39,0.3,0.82,0.57,1.27,0.79l0.01-0.21l3,0.18l-0.05,0.81
					C-1768.96-952.77-1765.3-956.01-1765.05-960.26z"/>
				<path class="st36" d="M-1765.16-960.27c0.06-1.05-0.09-2.06-0.42-2.99c-0.16-0.47-0.37-0.91-0.62-1.33l-0.04,0.59l-9.99-0.6
					l-0.6,9.95l-0.55-0.03c0.39,0.3,0.8,0.56,1.25,0.78l0.01-0.11l2.95,0.18l-0.04,0.71
					C-1769.01-952.88-1765.41-956.07-1765.16-960.27z"/>
				<path class="st37" d="M-1765.27-960.27c0.06-1.03-0.09-2.03-0.41-2.95c-0.16-0.46-0.37-0.9-0.61-1.31l-0.03,0.53l-9.9-0.59
					l-0.59,9.86l-0.49-0.03c0.38,0.29,0.79,0.55,1.23,0.77l0-0.01l2.91,0.17l-0.04,0.6
					C-1769.06-952.99-1765.51-956.14-1765.27-960.27z"/>
				<path class="st38" d="M-1765.37-960.28c0.06-1.02-0.09-2-0.41-2.91c-0.16-0.45-0.36-0.89-0.6-1.29l-0.03,0.46l-9.81-0.59
					l-0.59,9.77l-0.43-0.03c0.38,0.29,0.78,0.54,1.21,0.76c0.86,0.43,1.82,0.69,2.84,0.75
					C-1769.12-953.1-1765.62-956.21-1765.37-960.28z"/>
				<path class="st38" d="M-1765.48-960.29c0.06-1-0.09-1.97-0.4-2.86c-0.16-0.45-0.36-0.87-0.6-1.27l-0.02,0.4l-9.72-0.58
					l-0.58,9.68l-0.37-0.02c0.37,0.28,0.77,0.53,1.19,0.74c0.85,0.42,1.79,0.68,2.79,0.74
					C-1769.17-953.22-1765.72-956.27-1765.48-960.29z"/>
				<path class="st39" d="M-1765.59-960.29c0.06-0.99-0.08-1.94-0.4-2.82c-0.16-0.44-0.35-0.86-0.59-1.26l-0.02,0.34l-9.63-0.58
					l-0.58,9.59l-0.31-0.02c0.37,0.28,0.76,0.53,1.18,0.73c0.83,0.41,1.76,0.67,2.75,0.73
					C-1769.22-953.33-1765.83-956.34-1765.59-960.29z"/>
				<path class="st40" d="M-1765.7-960.3c0.06-0.97-0.08-1.91-0.39-2.78c-0.15-0.43-0.35-0.85-0.58-1.24l-0.02,0.28l-9.54-0.57
					l-0.57,9.5l-0.25-0.01c0.36,0.28,0.75,0.52,1.16,0.72c0.82,0.41,1.74,0.66,2.71,0.72
					C-1769.28-953.44-1765.93-956.41-1765.7-960.3z"/>
				<path class="st41" d="M-1765.81-960.31c0.06-0.96-0.08-1.88-0.38-2.73c-0.15-0.43-0.34-0.83-0.57-1.22l-0.01,0.22l-9.45-0.57
					l-0.57,9.41l-0.19-0.01c0.35,0.27,0.74,0.51,1.14,0.71c0.81,0.4,1.71,0.65,2.67,0.71
					C-1769.33-953.55-1766.04-956.47-1765.81-960.31z"/>
				<path class="st42" d="M-1765.92-960.31c0.06-0.94-0.08-1.85-0.38-2.69c-0.15-0.42-0.34-0.82-0.56-1.2l-0.01,0.16l-9.36-0.56
					l-0.56,9.32l-0.13-0.01c0.35,0.27,0.72,0.5,1.12,0.7c0.8,0.39,1.68,0.64,2.63,0.7
					C-1769.38-953.66-1766.14-956.54-1765.92-960.31z"/>
				<path class="st43" d="M-1766.02-960.32c0.06-0.93-0.08-1.82-0.37-2.65c-0.15-0.41-0.33-0.81-0.55-1.18l-0.01,0.1l-9.27-0.56
					l-0.55,9.23l-0.07,0c0.34,0.26,0.71,0.49,1.1,0.69c0.78,0.39,1.66,0.63,2.59,0.69
					C-1769.44-953.78-1766.25-956.61-1766.02-960.32z"/>
				<path class="st44" d="M-1766.13-960.33c0.05-0.91-0.08-1.79-0.37-2.61c-0.14-0.41-0.33-0.79-0.54-1.16l0,0.04l-9.18-0.55
					l-0.55,9.14l-0.01,0c0.34,0.26,0.7,0.49,1.09,0.68c0.77,0.38,1.63,0.62,2.54,0.67
					C-1769.49-953.89-1766.35-956.67-1766.13-960.33z"/>
				<path class="st45" d="M-1766.24-960.33c0.05-0.9-0.08-1.77-0.36-2.56c-0.14-0.4-0.32-0.78-0.53-1.14
					c-0.11-0.18-0.22-0.35-0.34-0.52l-0.03,0.48l-8.71-0.52l-0.52,8.68l-0.45-0.03c0.15,0.14,0.31,0.28,0.48,0.4
					c0.33,0.25,0.69,0.48,1.07,0.67c0.76,0.38,1.6,0.61,2.5,0.66C-1769.55-954-1766.46-956.74-1766.24-960.33z"/>
				<path class="st46" d="M-1766.35-960.34c0.05-0.88-0.08-1.74-0.35-2.52c-0.14-0.39-0.32-0.77-0.52-1.12
					c-0.1-0.18-0.22-0.35-0.34-0.51l-0.02,0.41l-8.63-0.52l-0.49,8.18l-0.83-0.05c1.09,1.23,2.65,2.04,4.41,2.15
					C-1769.6-954.11-1766.56-956.8-1766.35-960.34z"/>
				<path class="st47" d="M-1766.46-960.34c0.1-1.74-0.51-3.35-1.58-4.56l-0.05,0.79l-8.14-0.49l-0.49,8.11l-0.76-0.05
					c1.07,1.21,2.6,2.01,4.34,2.11C-1769.65-954.22-1766.67-956.87-1766.46-960.34z"/>
				<path class="st48" d="M-1766.57-960.35c0.1-1.71-0.5-3.29-1.55-4.48l-0.04,0.71l-8.06-0.48l-0.48,8.03l-0.68-0.04
					c1.05,1.19,2.56,1.97,4.26,2.07C-1769.71-954.34-1766.77-956.94-1766.57-960.35z"/>
				<path class="st49" d="M-1766.67-960.36c0.1-1.68-0.49-3.24-1.52-4.4l-0.04,0.64l-7.99-0.48l-0.48,7.95l-0.6-0.04
					c1.03,1.17,2.51,1.94,4.19,2.04C-1769.76-954.45-1766.88-957-1766.67-960.36z"/>
				<path class="st50" d="M-1766.78-960.36c0.1-1.65-0.48-3.18-1.49-4.32l-0.03,0.56l-7.91-0.47l-0.47,7.88l-0.53-0.03
					c1.01,1.14,2.47,1.9,4.11,2C-1769.81-954.56-1766.98-957.07-1766.78-960.36z"/>
				<path class="st51" d="M-1766.89-960.37c0.1-1.62-0.47-3.12-1.47-4.24l-0.03,0.48l-7.83-0.47l-0.47,7.8l-0.45-0.03
					c1,1.12,2.42,1.87,4.04,1.96C-1769.87-954.67-1767.09-957.14-1766.89-960.37z"/>
			</g>
			<path class="st52" d="M-1770.18-953.86c-0.97-0.06-1.94-0.18-2.86-0.35c-2.43-0.48-3.8-1.24-3.75-2.09
				c0.08-0.87,0.13-1.39,0.35-2.21c0.26-0.95,0.59-1.61,0.77-1.92c0.72-1.26,1.59-2.09,2.81-2.71c1.81-0.91,4.8-1.05,7.09,0.78
				c1.27,1.01,1.84,2.38,1.98,2.77c0,0,0,0,0,0c0.63,1.72,0.6,2.99,0.57,4.12c-0.02,0.36-0.3,0.67-0.83,0.92
				C-1765.25-953.95-1767.69-953.71-1770.18-953.86z M-1769.53-963.41c-1.18-0.07-2.31,0.18-3.16,0.6
				c-1.15,0.58-1.97,1.37-2.66,2.56c-0.17,0.29-0.48,0.92-0.73,1.83c-0.21,0.79-0.26,1.3-0.34,2.14c-0.03,0.5,1.02,1.23,3.45,1.7
				c3.21,0.63,7.14,0.49,8.77-0.3c0.39-0.19,0.61-0.41,0.62-0.61c0.03-1.08,0.07-2.32-0.54-3.97c-0.14-0.37-0.68-1.65-1.87-2.61
				C-1767.08-962.94-1768.34-963.34-1769.53-963.41z"/>
		</g>
		<g id="path60-2-9">
			<path class="st53" d="M-1766.17-962.48c-5.1-3.83-10.36,2.5-10.63,6.99l0.47-0.16C-1776.24-959.78-1770.88-965.9-1766.17-962.48"
				/>
		</g>
		<g id="polygon62-6-3">
			<polygon class="st53" points="-1776.33,-955.64 -1776.8,-955.49 -1777.09,-954.83 			"/>
		</g>
		<g id="path64-7-7">
			<path class="st54" d="M-1774.93-954.73l-0.29,0.66l-1.87-0.76l0.29-0.66c0.24-4.08,4.61-9.67,9.23-7.8
				C-1771.88-964.99-1774.69-958.8-1774.93-954.73L-1774.93-954.73z"/>
		</g>
		<g id="path70-9-2">
			<path class="st53" d="M-1774.93-954.73c0.27-4.49,3.67-11.58,8.76-7.75c-4.71-3.42-7.8,3.56-7.89,7.69l-1.16,0.72
				L-1774.93-954.73L-1774.93-954.73z"/>
		</g>
		<g id="path74-7-4">
			<path class="st3" d="M-1774.93-954.73c0.27-4.49,3.67-11.58,8.76-7.75c-4.71-3.42-7.8,3.56-7.89,7.69l-1.16,0.72L-1774.93-954.73
				L-1774.93-954.73z"/>
		</g>
		<g id="polygon78-8-4">
			<polygon class="st3" points="-1768.38,-955.64 -1767.81,-954.44 -1767.77,-956.42 -1768.23,-956.94 			"/>
			<path class="st3" d="M-1767.82-954.33c-0.04,0-0.08-0.03-0.1-0.07l-0.57-1.19c-0.01-0.02-0.01-0.04-0.01-0.06l0.15-1.3
				c0.01-0.05,0.04-0.08,0.08-0.1c0.04-0.01,0.09,0,0.12,0.03l0.46,0.52c0.02,0.02,0.03,0.05,0.03,0.08l-0.04,1.98
				c0,0.05-0.04,0.1-0.09,0.11C-1767.8-954.33-1767.81-954.33-1767.82-954.33z M-1768.26-955.66l0.34,0.72l0.03-1.44l-0.25-0.29
				L-1768.26-955.66z"/>
		</g>
		<g id="polygon80-2-4">
			<polygon class="st1" points="-1765.31,-955.92 -1764.97,-954.74 -1764.93,-956.72 -1765.17,-956.99 			"/>
		</g>
		<g id="path82-9-3">
			<path class="st54" d="M-1767.81-954.44l0.04-1.98l2.84-0.3c0,0,0.1,1.85-0.04,1.98
				C-1765.11-954.62-1767.81-954.44-1767.81-954.44L-1767.81-954.44z"/>
			<path class="st54" d="M-1767.82-954.33c-0.03,0-0.05-0.01-0.07-0.03c-0.02-0.02-0.04-0.05-0.04-0.09l0.04-1.98
				c0-0.06,0.05-0.11,0.1-0.11l2.84-0.3c0.03,0,0.06,0.01,0.09,0.03s0.04,0.05,0.04,0.08c0.07,1.27,0.04,1.97-0.08,2.07
				c-0.14,0.13-1.66,0.25-2.91,0.33C-1767.81-954.33-1767.81-954.33-1767.82-954.33z M-1767.66-956.32l-0.04,1.75
				c0.77-0.05,2.39-0.18,2.64-0.26c0.06-0.17,0.05-0.99,0.01-1.76L-1767.66-956.32z M-1765.06-954.81L-1765.06-954.81
				L-1765.06-954.81z M-1765.04-954.84L-1765.04-954.84L-1765.04-954.84z"/>
		</g>
		<g id="polygon84-9-0">
			<polygon class="st55" points="-1767.77,-956.42 -1768.23,-956.94 -1765.39,-957.24 -1764.93,-956.72 			"/>
			<path class="st55" d="M-1767.78-956.31c-0.03,0-0.06-0.02-0.08-0.04l-0.46-0.52c-0.03-0.03-0.04-0.08-0.02-0.12
				c0.02-0.04,0.05-0.07,0.1-0.07l2.84-0.3c0.04,0,0.07,0.01,0.1,0.04l0.46,0.52c0.03,0.03,0.04,0.08,0.02,0.12
				c-0.02,0.04-0.05,0.07-0.1,0.07l-2.84,0.3C-1767.76-956.31-1767.77-956.31-1767.78-956.31z M-1767.99-956.85l0.27,0.3l2.55-0.27
				l-0.27-0.3L-1767.99-956.85z"/>
		</g>
	</g>
</g>
</svg>
